<?xml version="1.0" encoding="utf-8"?>
<!-- Generator: Adobe Illustrator 18.1.1, SVG Export Plug-In . SVG Version: 6.00 Build 0)  -->
<svg version="1.1" id="Layer_1" xmlns="http://www.w3.org/2000/svg" xmlns:xlink="http://www.w3.org/1999/xlink" x="0px" y="0px"
	 viewBox="0 0 526.7 526.6" enable-background="new 0 0 526.7 526.6" xml:space="preserve">
<g>
	<path fill="#F9C960" d="M77.1,77.1l186.2,186.2L0,263.3c0-13.5,1.1-27.1,3.2-40.8C12.2,165.2,39,115.1,77.1,77.1z"/>
	<path fill="#E05858" d="M263.3,263.3L77.1,449.5C28.9,401.1-0.1,334.6,0,263.3L263.3,263.3z"/>
	<path fill="#2EB163" d="M263.3-0.1l0,263.3L77.1,77.1C125.5,28.8,192-0.1,263.3-0.1z"/>
	<path fill="#E05858" d="M449.5,77.1c48.3,48.4,77.2,114.9,77.1,186.2l-263.3,0L449.5,77.1z"/>
	<path fill="#6087C5" d="M263.3,263.3l0,263.3c-13.5,0-27.1-1.1-40.8-3.2c-57.3-9-107.3-35.8-145.4-73.9L263.3,263.3z"/>
	<path fill="#6087C5" d="M304.1,3.2c57.3,9,107.3,35.8,145.4,73.9L263.3,263.3l0-263.3C276.8,0,290.4,1,304.1,3.2z"/>
	<path fill="#2EB163" d="M263.3,263.3l186.2,186.2c-48.3,48.3-114.9,77.2-186.2,77.2L263.3,263.3z"/>
	<path fill="#F9C960" d="M526.7,263.3c0,13.5-1.1,27.1-3.2,40.8c-9,57.3-35.8,107.3-73.9,145.4L263.3,263.3L526.7,263.3z"/>
</g>
<path opacity="0.48" fill="#FFFFFF" d="M298.6,2.4C154.5-17.1,21.9,83.9,2.5,228C-17,372.1,84,504.7,228.1,524.1
	s276.6-81.5,296.1-225.6C543.7,154.4,442.7,21.9,298.6,2.4z M231.5,498.9C101.4,481.3,10.2,361.6,27.8,231.5S165,10.1,295.1,27.7
	S516.5,165,498.9,295.1C481.3,425.2,361.6,516.4,231.5,498.9z"/>
</svg>
